<?xml version="1.0" encoding="utf-8"?>
<!-- Generator: Adobe Illustrator 16.0.0, SVG Export Plug-In . SVG Version: 6.00 Build 0)  -->
<!DOCTYPE svg PUBLIC "-//W3C//DTD SVG 1.1//EN" "http://www.w3.org/Graphics/SVG/1.1/DTD/svg11.dtd">
<svg version="1.1" id="Layer_1" xmlns="http://www.w3.org/2000/svg" xmlns:xlink="http://www.w3.org/1999/xlink" x="0px" y="0px"
	 width="50px" height="50px" viewBox="0 0 50 50" enable-background="new 0 0 50 50" xml:space="preserve">
<path fill-rule="evenodd" clip-rule="evenodd" fill="#D2E2F0" d="M25.811,31.574c0,0-0.645,4.846-3.242,4.846h-0.891
	c-2.186,0-3.307-5.074-3.307-5.074"/>
<path fill-rule="evenodd" clip-rule="evenodd" fill="#D2E2F0" d="M25.811,5.134c0,0-0.645-5.119-3.242-5.119h-0.891
	c-2.186,0-3.307,5.073-3.307,5.073"/>
<path fill-rule="evenodd" clip-rule="evenodd" fill="#D2E2F0" d="M35.388,14.499c0,0,4.848,0.644,4.848,3.241v0.891
	c0,2.187-5.074,3.308-5.074,3.308"/>
<path fill-rule="evenodd" clip-rule="evenodd" fill="#D2E2F0" d="M9.009,14.499c0,0-5.12,0.644-5.12,3.241v0.891
	c0,2.187,5.074,3.308,5.074,3.308"/>
<path fill-rule="evenodd" clip-rule="evenodd" fill="#D2E2F0" d="M15.298,30.27c0,0-3.837,3.016-5.674,1.182l-0.812-0.678
	c-1.546-1.543,1.386-5.925,1.386-5.925"/>
<path fill-rule="evenodd" clip-rule="evenodd" fill="#D2E2F0" d="M33.993,11.574c0,0,3.256-4.03,1.42-5.867L34.6,4.85
	c-1.546-1.546-5.835,1.432-5.835,1.432"/>
<path fill-rule="evenodd" clip-rule="evenodd" fill="#D2E2F0" d="M34.145,25.012c0,0,3.062,3.792,1.226,5.628l-0.903,0.902
	c-1.546,1.547-5.744-1.432-5.744-1.432"/>
<path fill-rule="evenodd" clip-rule="evenodd" fill="#D2E2F0" d="M15.449,6.317c0,0-4.031-3.211-5.867-1.375L8.725,5.665
	c-1.546,1.546,1.431,5.881,1.431,5.881"/>
<path fill-rule="evenodd" clip-rule="evenodd" fill="#D2E2F0" d="M22.146,4.348c-7.64,0-13.833,6.192-13.833,13.832
	c0,7.638,6.193,13.832,13.833,13.832c7.638,0,13.831-6.193,13.831-13.832C35.978,10.541,29.784,4.348,22.146,4.348z M21.995,24.967
	c-3.662,0-6.631-3.062-6.631-6.724c0-3.662,2.969-6.753,6.631-6.753c3.661,0,6.89,3.091,6.89,6.753
	C28.885,21.904,25.656,24.967,21.995,24.967z"/>
<path fill-rule="evenodd" clip-rule="evenodd" fill="#D2E2F0" d="M39.059,47.66c0,0-0.308,2.318-1.552,2.318h-0.426
	c-1.047,0-1.583-2.428-1.583-2.428"/>
<path fill-rule="evenodd" clip-rule="evenodd" fill="#D2E2F0" d="M39.059,35.008c0,0-0.308-2.33-1.552-2.33h-0.426
	c-1.047,0-1.583,2.309-1.583,2.309"/>
<path fill-rule="evenodd" clip-rule="evenodd" fill="#D2E2F0" d="M43.671,39.488c0,0,2.439,0.309,2.439,1.551v0.428
	c0,1.045-2.549,1.582-2.549,1.582"/>
<path fill-rule="evenodd" clip-rule="evenodd" fill="#D2E2F0" d="M31.019,39.488c0,0-2.151,0.309-2.151,1.551v0.428
	c0,1.045,2.129,1.582,2.129,1.582"/>
<path fill-rule="evenodd" clip-rule="evenodd" fill="#D2E2F0" d="M34.027,47.035c0,0-1.896,1.564-2.775,0.686l-0.388-0.324
	c-0.74-0.74,0.723-2.955,0.723-2.955"/>
<path fill-rule="evenodd" clip-rule="evenodd" fill="#D2E2F0" d="M42.974,38.09c0,0,1.738-2.051,0.859-2.928l-0.388-0.412
	c-0.741-0.738-2.974,0.805-2.974,0.805"/>
<path fill-rule="evenodd" clip-rule="evenodd" fill="#D2E2F0" d="M43.046,44.52c0,0,1.587,2.055,0.708,2.934l-0.433,0.432
	c-0.739,0.74-2.869-0.926-2.869-0.926"/>
<path fill-rule="evenodd" clip-rule="evenodd" fill="#D2E2F0" d="M34.1,35.572c0,0-1.868-1.596-2.747-0.717l-0.41,0.346
	c-0.74,0.74,0.624,2.873,0.624,2.873"/>
<path fill-rule="evenodd" clip-rule="evenodd" fill="#D2E2F0" d="M37.305,34.631c-3.655,0-6.619,2.963-6.619,6.619
	s2.964,6.619,6.619,6.619c3.656,0,6.619-2.963,6.619-6.619S40.961,34.631,37.305,34.631z M37.475,44.291
	c-1.606,0-2.908-1.342-2.908-2.949c0-1.605,1.302-2.906,2.908-2.906c1.605,0,2.968,1.301,2.968,2.906
	C40.442,42.949,39.08,44.291,37.475,44.291z"/>
</svg>
